<svg width="1920" height="233" viewBox="0 0 1920 233" fill="none" xmlns="http://www.w3.org/2000/svg">
<path d="M-19 0H84V199H-19V0Z" fill="#FFFBF1"/>
<ellipse cx="32.5" cy="199" rx="51.5" ry="34" fill="#FFFBF1"/>
<path d="M84 0H187V199H84V0Z" fill="#FBBA7D"/>
<ellipse cx="135.5" cy="199" rx="51.5" ry="34" fill="#FBBA7D"/>
<path d="M187 0H290V199H187V0Z" fill="#FFFBF1"/>
<ellipse cx="238.5" cy="199" rx="51.5" ry="34" fill="#FFFBF1"/>
<path d="M290 0H393V199H290V0Z" fill="#FBBA7D"/>
<ellipse cx="341.5" cy="199" rx="51.5" ry="34" fill="#FBBA7D"/>
<path d="M393 0H496V199H393V0Z" fill="#FFFBF1"/>
<ellipse cx="444.5" cy="199" rx="51.5" ry="34" fill="#FFFBF1"/>
<path d="M496 0H599V199H496V0Z" fill="#FBBA7D"/>
<ellipse cx="547.5" cy="199" rx="51.5" ry="34" fill="#FBBA7D"/>
<path d="M599 0H702V199H599V0Z" fill="#FFFBF1"/>
<ellipse cx="650.5" cy="199" rx="51.5" ry="34" fill="#FFFBF1"/>
<path d="M702 0H805V199H702V0Z" fill="#FBBA7D"/>
<ellipse cx="753.5" cy="199" rx="51.5" ry="34" fill="#FBBA7D"/>
<path d="M1629 0H1732V199H1629V0Z" fill="#FFFBF1"/>
<ellipse cx="1680.5" cy="199" rx="51.5" ry="34" fill="#FFFBF1"/>
<path d="M1732 0H1835V199H1732V0Z" fill="#FBBA7D"/>
<ellipse cx="1783.5" cy="199" rx="51.5" ry="34" fill="#FBBA7D"/>
<path d="M1835 0H1938V199H1835V0Z" fill="#FFFBF1"/>
<ellipse cx="1886.5" cy="199" rx="51.5" ry="34" fill="#FFFBF1"/>
<path d="M805 0H908V199H805V0Z" fill="#FFFBF1"/>
<ellipse cx="856.5" cy="199" rx="51.5" ry="34" fill="#FFFBF1"/>
<path d="M908 0H1011V199H908V0Z" fill="#FBBA7D"/>
<ellipse cx="959.5" cy="199" rx="51.5" ry="34" fill="#FBBA7D"/>
<path d="M1011 0H1114V199H1011V0Z" fill="#FFFBF1"/>
<ellipse cx="1062.5" cy="199" rx="51.5" ry="34" fill="#FFFBF1"/>
<path d="M1114 0H1217V199H1114V0Z" fill="#FBBA7D"/>
<ellipse cx="1165.5" cy="199" rx="51.5" ry="34" fill="#FBBA7D"/>
<path d="M1217 0H1320V199H1217V0Z" fill="#FFFBF1"/>
<ellipse cx="1268.5" cy="199" rx="51.5" ry="34" fill="#FFFBF1"/>
<path d="M1320 0H1423V199H1320V0Z" fill="#FBBA7D"/>
<ellipse cx="1371.5" cy="199" rx="51.5" ry="34" fill="#FBBA7D"/>
<path d="M1423 0H1526V199H1423V0Z" fill="#FFFBF1"/>
<ellipse cx="1474.5" cy="199" rx="51.5" ry="34" fill="#FFFBF1"/>
<path d="M1526 0H1629V199H1526V0Z" fill="#FBBA7D"/>
<ellipse cx="1577.5" cy="199" rx="51.5" ry="34" fill="#FBBA7D"/>
</svg>
